HIERARCHY
ROOT Hips
{
  OFFSET -211.332 90.6431 1329.4
  CHANNELS 6 Xposition Yposition Zposition Zrotation Xrotation Yrotation
  JOINT Spine
  {
    OFFSET 0 8 0
    CHANNELS 6 Xposition Yposition Zposition Zrotation Xrotation Yrotation
    JOINT Spine1
    {
      OFFSET 0 8 0
      CHANNELS 6 Xposition Yposition Zposition Zrotation Xrotation Yrotation
      JOINT Spine2
      {
        OFFSET 0 8 0
        CHANNELS 6 Xposition Yposition Zposition Zrotation Xrotation Yrotation
        JOINT Spine3
        {
          OFFSET 0 8 0
          CHANNELS 6 Xposition Yposition Zposition Zrotation Xrotation Yrotation
          JOINT Neck
          {
            OFFSET 0 17 0
            CHANNELS 6 Xposition Yposition Zposition Zrotation Xrotation Yrotation
            JOINT Head
            {
              OFFSET 0 10.8 0
              CHANNELS 6 Xposition Yposition Zposition Zrotation Xrotation Yrotation
              End Site
              {
                OFFSET 0 20.25 0
              }
            }
          }
          JOINT LeftShoulder
          {
            OFFSET 5 17 0
            CHANNELS 6 Xposition Yposition Zposition Zrotation Xrotation Yrotation
            JOINT LeftShoulder2
            {
              OFFSET 6.45 0 0
              CHANNELS 6 Xposition Yposition Zposition Zrotation Xrotation Yrotation
              JOINT LeftArm
              {
                OFFSET 6.45 0 0
                CHANNELS 6 Xposition Yposition Zposition Zrotation Xrotation Yrotation
                JOINT LeftForeArm
                {
                  OFFSET 0 -32.4 -2
                  CHANNELS 6 Xposition Yposition Zposition Zrotation Xrotation Yrotation
                  JOINT LeftHand
                  {
                    OFFSET 0 -25.65 2
                    CHANNELS 6 Xposition Yposition Zposition Zrotation Xrotation Yrotation
                    JOINT LeftHandThumb1
                    {
                      OFFSET -0.5 -1.5 2.65
                      CHANNELS 6 Xposition Yposition Zposition Zrotation Xrotation Yrotation
                      JOINT LeftHandThumb2
                      {
                        OFFSET 0 -3.8 3.7
                        CHANNELS 6 Xposition Yposition Zposition Zrotation Xrotation Yrotation
                        JOINT LeftHandThumb3
                        {
                          OFFSET 0 -3 2.7
                          CHANNELS 6 Xposition Yposition Zposition Zrotation Xrotation Yrotation
                          End Site
                          {
                            OFFSET 0 -2.3 1.8
                          }
                        }
                      }
                    }
                    JOINT LeftHandIndex
                    {
                      OFFSET 0 -1.9 1.6
                      CHANNELS 6 Xposition Yposition Zposition Zrotation Xrotation Yrotation
                      JOINT LeftHandIndex1
                      {
                        OFFSET 0 -8.3 1.9
                        CHANNELS 6 Xposition Yposition Zposition Zrotation Xrotation Yrotation
                        JOINT LeftHandIndex2
                        {
                          OFFSET 0 -4.5 0
                          CHANNELS 6 Xposition Yposition Zposition Zrotation Xrotation Yrotation
                          JOINT LeftHandIndex3
                          {
                            OFFSET 0 -3.4 0
                            CHANNELS 6 Xposition Yposition Zposition Zrotation Xrotation Yrotation
                            End Site
                            {
                              OFFSET 0 -2.6 0
                            }
                          }
                        }
                      }
                    }
                    JOINT LeftHandMiddle
                    {
                      OFFSET -0.25 -2.2 0.4
                      CHANNELS 6 Xposition Yposition Zposition Zrotation Xrotation Yrotation
                      JOINT LeftHandMiddle1
                      {
                        OFFSET 0 -8.3 1
                        CHANNELS 6 Xposition Yposition Zposition Zrotation Xrotation Yrotation
                        JOINT LeftHandMiddle2
                        {
                          OFFSET 0 -4.65 0
                          CHANNELS 6 Xposition Yposition Zposition Zrotation Xrotation Yrotation
                          JOINT LeftHandMiddle3
                          {
                            OFFSET 0 -3.3 0
                            CHANNELS 6 Xposition Yposition Zposition Zrotation Xrotation Yrotation
                            End Site
                            {
                              OFFSET 0 -2.7 0
                            }
                          }
                        }
                      }
                    }
                    JOINT LeftHandRing
                    {
                      OFFSET -0.5 -2.15 -0.8
                      CHANNELS 6 Xposition Yposition Zposition Zrotation Xrotation Yrotation
                      JOINT LeftHandRing1
                      {
                        OFFSET 0 -7.75 -0.2
                        CHANNELS 6 Xposition Yposition Zposition Zrotation Xrotation Yrotation
                        JOINT LeftHandRing2
                        {
                          OFFSET 0 -3.8 0
                          CHANNELS 6 Xposition Yposition Zposition Zrotation Xrotation Yrotation
                          JOINT LeftHandRing3
                          {
                            OFFSET 0 -3.4 0
                            CHANNELS 6 Xposition Yposition Zposition Zrotation Xrotation Yrotation
                            End Site
                            {
                              OFFSET 0 -2.6 0
                            }
                          }
                        }
                      }
                    }
                    JOINT LeftHandPinky
                    {
                      OFFSET -0.75 -1.75 -1.85
                      CHANNELS 6 Xposition Yposition Zposition Zrotation Xrotation Yrotation
                      JOINT LeftHandPinky1
                      {
                        OFFSET 0 -7.15 -1
                        CHANNELS 6 Xposition Yposition Zposition Zrotation Xrotation Yrotation
                        JOINT LeftHandPinky2
                        {
                          OFFSET 0 -3 0
                          CHANNELS 6 Xposition Yposition Zposition Zrotation Xrotation Yrotation
                          JOINT LeftHandPinky3
                          {
                            OFFSET 0 -2.35 0
                            CHANNELS 6 Xposition Yposition Zposition Zrotation Xrotation Yrotation
                            End Site
                            {
                              OFFSET 0 -2.1 0
                            }
                          }
                        }
                      }
                    }
                  }
                }
              }
            }
          }
          JOINT RightShoulder
          {
            OFFSET -5 17 0
            CHANNELS 6 Xposition Yposition Zposition Zrotation Xrotation Yrotation
            JOINT RightShoulder2
            {
              OFFSET -6.45 0 0
              CHANNELS 6 Xposition Yposition Zposition Zrotation Xrotation Yrotation
              JOINT RightArm
              {
                OFFSET -6.45 0 0
                CHANNELS 6 Xposition Yposition Zposition Zrotation Xrotation Yrotation
                JOINT RightForeArm
                {
                  OFFSET 0 -32.4 -2
                  CHANNELS 6 Xposition Yposition Zposition Zrotation Xrotation Yrotation
                  JOINT RightHand
                  {
                    OFFSET 0 -25.65 2
                    CHANNELS 6 Xposition Yposition Zposition Zrotation Xrotation Yrotation
                    JOINT RightHandThumb1
                    {
                      OFFSET 0.5 -1.5 2.65
                      CHANNELS 6 Xposition Yposition Zposition Zrotation Xrotation Yrotation
                      JOINT RightHandThumb2
                      {
                        OFFSET 0 -3.8 3.7
                        CHANNELS 6 Xposition Yposition Zposition Zrotation Xrotation Yrotation
                        JOINT RightHandThumb3
                        {
                          OFFSET 0 -3 2.7
                          CHANNELS 6 Xposition Yposition Zposition Zrotation Xrotation Yrotation
                          End Site
                          {
                            OFFSET 0 -2.3 1.8
                          }
                        }
                      }
                    }
                    JOINT RightHandIndex
                    {
                      OFFSET 0 -1.9 1.6
                      CHANNELS 6 Xposition Yposition Zposition Zrotation Xrotation Yrotation
                      JOINT RightHandIndex1
                      {
                        OFFSET 0 -8.3 1.9
                        CHANNELS 6 Xposition Yposition Zposition Zrotation Xrotation Yrotation
                        JOINT RightHandIndex2
                        {
                          OFFSET 0 -4.5 0
                          CHANNELS 6 Xposition Yposition Zposition Zrotation Xrotation Yrotation
                          JOINT RightHandIndex3
                          {
                            OFFSET 0 -3.4 0
                            CHANNELS 6 Xposition Yposition Zposition Zrotation Xrotation Yrotation
                            End Site
                            {
                              OFFSET 0 -2.6 0
                            }
                          }
                        }
                      }
                    }
                    JOINT RightHandMiddle
                    {
                      OFFSET 0.25 -2.2 0.4
                      CHANNELS 6 Xposition Yposition Zposition Zrotation Xrotation Yrotation
                      JOINT RightHandMiddle1
                      {
                        OFFSET 0 -8.3 1
                        CHANNELS 6 Xposition Yposition Zposition Zrotation Xrotation Yrotation
                        JOINT RightHandMiddle2
                        {
                          OFFSET 0 -4.65 0
                          CHANNELS 6 Xposition Yposition Zposition Zrotation Xrotation Yrotation
                          JOINT RightHandMiddle3
                          {
                            OFFSET 0 -3.3 0
                            CHANNELS 6 Xposition Yposition Zposition Zrotation Xrotation Yrotation
                            End Site
                            {
                              OFFSET 0 -2.7 0
                            }
                          }
                        }
                      }
                    }
                    JOINT RightHandRing
                    {
                      OFFSET 0.5 -2.15 -0.8
                      CHANNELS 6 Xposition Yposition Zposition Zrotation Xrotation Yrotation
                      JOINT RightHandRing1
                      {
                        OFFSET 0 -7.75 -0.2
                        CHANNELS 6 Xposition Yposition Zposition Zrotation Xrotation Yrotation
                        JOINT RightHandRing2
                        {
                          OFFSET 0 -3.8 0
                          CHANNELS 6 Xposition Yposition Zposition Zrotation Xrotation Yrotation
                          JOINT RightHandRing3
                          {
                            OFFSET 0 -3.4 0
                            CHANNELS 6 Xposition Yposition Zposition Zrotation Xrotation Yrotation
                            End Site
                            {
                              OFFSET 0 -2.6 0
                            }
                          }
                        }
                      }
                    }
                    JOINT RightHandPinky
                    {
                      OFFSET 0.75 -1.75 -1.85
                      CHANNELS 6 Xposition Yposition Zposition Zrotation Xrotation Yrotation
                      JOINT RightHandPinky1
                      {
                        OFFSET 0 -7.15 -1
                        CHANNELS 6 Xposition Yposition Zposition Zrotation Xrotation Yrotation
                        JOINT RightHandPinky2
                        {
                          OFFSET 0 -3 0
                          CHANNELS 6 Xposition Yposition Zposition Zrotation Xrotation Yrotation
                          JOINT RightHandPinky3
                          {
                            OFFSET 0 -2.35 0
                            CHANNELS 6 Xposition Yposition Zposition Zrotation Xrotation Yrotation
                            End Site
                            {
                              OFFSET 0 -2.1 0
                            }
                          }
                        }
                      }
                    }
                  }
                }
              }
            }
          }
        }
      }
    }
  }
  JOINT LeftUpLeg
  {
    OFFSET 8 0 0
    CHANNELS 6 Xposition Yposition Zposition Zrotation Xrotation Yrotation
    JOINT LeftLeg
    {
      OFFSET 0 -45 -1
      CHANNELS 6 Xposition Yposition Zposition Zrotation Xrotation Yrotation
      JOINT LeftFoot
      {
        OFFSET 0 -41 -2
        CHANNELS 6 Xposition Yposition Zposition Zrotation Xrotation Yrotation
        JOINT LeftToeBase
        {
          OFFSET 0 -7.5 12.5
          CHANNELS 6 Xposition Yposition Zposition Zrotation Xrotation Yrotation
          JOINT LeftFootToe
          {
            OFFSET 0 0 4
            CHANNELS 6 Xposition Yposition Zposition Zrotation Xrotation Yrotation
            End Site
            {
              OFFSET 0 0 0
            }
          }
        }
      }
    }
  }
  JOINT RightUpLeg
  {
    OFFSET -8 0 0
    CHANNELS 6 Xposition Yposition Zposition Zrotation Xrotation Yrotation
    JOINT RightLeg
    {
      OFFSET 0 -45 -1
      CHANNELS 6 Xposition Yposition Zposition Zrotation Xrotation Yrotation
      JOINT RightFoot
      {
        OFFSET 0 -41 -2
        CHANNELS 6 Xposition Yposition Zposition Zrotation Xrotation Yrotation
        JOINT RightToeBase
        {
          OFFSET 0 -7.5 12.5
          CHANNELS 6 Xposition Yposition Zposition Zrotation Xrotation Yrotation
          JOINT RightFootToe
          {
            OFFSET 0 0 4
            CHANNELS 6 Xposition Yposition Zposition Zrotation Xrotation Yrotation
            End Site
            {
              OFFSET 0 0 0
            }
          }
        }
      }
    }
  }
}
MOTION
Frames:	3
Frame Time:	0.0111111
-183.236 71.2514 1361.02 -2.52017 7.58841 -168.647 0 8 0 4.85078 10.0605 -8.27484 5.68434e-14 8 0 2.237 6.02693 -1.82912 0 8 0 1.0938 3.02492 -0.884599 -2.84217e-14 8 0 1.09192 3.01982 -0.883059 2.84217e-14 17 -2.27374e-13 2.62835 2.55617 -6.44028 2.84217e-14 10.8 2.27374e-13 6.583 5.48338 -15.2748 5 17 0 -2.06134 2.25831 -11.297 6.45 0 0 -0.351788 0.469572 -0.424226 6.45 5.68434e-14 0 58.6975 -23.2607 -2.59541 -2.27374e-13 -32.4 -2 -8.14557 -60.8208 -23.0108 0 -25.65 2 16.6066 -32.7723 -29.8214 -0.5 -1.5 2.65 -45.2439 -39.0022 40.0331 0 -3.8 3.7 0.0522306 15.3016 0.0280438 -4.54747e-13 -3 2.7 -0.156259 9.74286 -0.0944407 5.68434e-14 -1.9 1.6 -2.38542e-15 1.90833e-14 3.18055e-15 -2.84217e-14 -8.3 1.9 -18.3206 7.69326 1.41131 2.84217e-14 -4.5 5.68434e-14 -88.1003 -7.79236e-14 -0.00110329 0 -3.4 -5.68434e-14 -83.8754 0.0194379 -0.0214563 -0.25 -2.2 0.4 -2.38542e-15 1.90833e-14 3.18055e-15 0 -8.3 1 -47.9733 10.8297 7.019 0 -4.65 -1.13687e-13 -56.6305 0.00836063 0.00176978 0 -3.3 0 -90.0002 4.13472e-14 -4.81059e-14 -0.5 -2.15 -0.8 -2.38542e-15 1.90833e-14 3.18055e-15 5.68434e-14 -7.75 -0.2 -71.9281 7.43958 11.6589 2.27374e-13 -3.8 0 -57.8071 8.5363e-06 -0.00390851 0 -3.4 -5.68434e-14 -90.0002 0.00281162 -3.18055e-14 -0.75 -1.75 -1.85 -2.38542e-15 1.90833e-14 3.18055e-15 0 -7.15 -1 -83.9485 4.89682 15.5252 -2.27374e-13 -3 2.84217e-14 -58.1751 0.0129964 -0.000215251 0 -2.35 5.68434e-14 -40.5639 0.010244 -0.000791632 -5 17 -4.54747e-13 10.2129 -2.71655 -5.86858 -6.45 0 -2.27374e-13 -0.736871 0.621581 0.689808 -6.45 5.68434e-14 0 -29.7773 -2.69347 -6.63907 -2.84217e-14 -32.4 -2 -14.2695 -43.8032 1.34461 -1.42109e-14 -25.65 2 -15.571 -8.63723 46.4327 0.5 -1.5 2.65 29.211 8.27487 -121.395 2.27374e-13 -3.8 3.7 0.34525 35.631 0.0130032 0 -3 2.7 0.0435463 55.716 -0.0332445 0 -1.9 1.6 7.06225e-31 -6.36111e-15 6.36111e-15 1.13687e-13 -8.3 1.9 1.94108 -6.59928 0.0718263 0 -4.5 0 32.3186 -0.247302 0.301685 -2.27374e-13 -3.4 -1.13687e-13 23.3851 -0.0657686 0.233715 0.25 -2.2 0.4 7.06225e-31 -6.36111e-15 6.36111e-15 0 -8.3 1 2.54988 0.497185 -0.0825739 0 -4.65 0 55.9974 -0.0162174 0.0240409 0 -3.3 1.13687e-13 38.8623 0.00213629 0.0220392 0.5 -2.15 -0.8 7.06225e-31 -6.36111e-15 6.36111e-15 0 -7.75 -0.2 8.43905 7.27771 -0.816595 0 -3.8 0 41.1056 -0.0498122 0.0417416 -1.13687e-13 -3.4 1.13687e-13 28.7742 -0.0114328 0.0371537 0.75 -1.75 -1.85 7.06225e-31 -6.36111e-15 6.36111e-15 1.13687e-13 -7.15 -1 19.6543 4.37782 -1.33733 -1.13687e-13 -3 0 8.82781e-32 1.59028e-15 -3.18055e-15 0 -2.35 -2.27374e-13 3.53113e-31 -6.36111e-15 3.18055e-15 8 0 -2.27374e-13 -21.0725 -52.5308 -24.3432 -2.84217e-14 -45 -1 -3.76232 62.5067 6.66383 -2.84217e-14 -41 -2 -0.781347 1.52159 -22.6204 -1.7053e-13 -7.5 12.5 3.97569e-16 0 -6.36111e-15 0 -3.55271e-15 4 -2.29287 -2.18395 77.0597 -8 -2.84217e-14 0 -20.576 -51.7577 -20.6452 8.52651e-14 -45 -1 13.6696 74.054 -16.1126 1.42109e-14 -41 -2 1.68208 0.987769 5.60112 0 -7.5 12.5 -7.66686e-17 -12.2353 1.9832e-15 0 0 4 3.03019 13.3572 28.7192 
-183.242 71.2298 1360.84 -2.57144 7.68988 -168.648 0 8 0 4.85716 10.0174 -8.38342 5.68434e-14 8 0 2.22788 6.02322 -1.81839 -2.84217e-14 8 2.27374e-13 1.08939 3.02296 -0.879372 0 8 0 1.08753 3.01788 -0.877845 0 17 0 2.58659 2.60597 -6.36306 -5.68434e-14 10.8 0 6.48987 5.61265 -15.0955 5 17 2.27374e-13 -2.123 2.24118 -11.2828 6.45 0 -2.27374e-13 -0.372529 0.469571 -0.438186 6.45 0 -2.27374e-13 58.7138 -23.3507 -2.47319 -5.68434e-14 -32.4 -2 -7.95429 -59.6441 -22.6233 0 -25.65 2 15.0817 -32.3012 -29.8824 -0.5 -1.5 2.65 -44.774 -38.9207 40.4115 0 -3.8 3.7 0.0625783 14.5124 0.0279412 -2.27374e-13 -3 2.7 -0.178528 11.9486 -0.110549 0 -1.9 1.6 1.59028e-15 2.22639e-14 3.97569e-16 -2.84217e-14 -8.3 1.9 -19.9463 7.80837 1.5531 0 -4.5 -5.68434e-14 -88.264 -5.725e-14 -0.00110329 0 -3.4 -1.13687e-13 -84.3459 0.0164206 -0.0152221 -0.25 -2.2 0.4 1.59028e-15 2.22639e-14 3.97569e-16 -1.42109e-14 -8.3 1 -49.3917 10.6271 7.13188 0 -4.65 0 -56.3584 0.00836063 0.00176978 0 -3.3 5.68434e-14 -90.0002 -3.49861e-14 2.18663e-14 -0.5 -2.15 -0.8 1.59028e-15 2.22639e-14 3.97569e-16 4.26326e-14 -7.75 -0.2 -72.3741 7.18166 11.5473 2.27374e-13 -3.8 0 -57.7896 8.5363e-06 -0.00390851 -2.27374e-13 -3.4 -5.68434e-14 -90.0002 0.00281162 -1.43125e-14 -0.75 -1.75 -1.85 1.59028e-15 2.22639e-14 3.97569e-16 0 -7.15 -1 -84.0491 4.71948 15.4176 -2.27374e-13 -3 2.84217e-14 -57.9747 0.0129964 -0.000215251 0 -2.35 0 -40.4026 0.010244 -0.000791632 -5 17 0 10.1557 -2.66083 -5.85815 -6.45 -2.84217e-14 -2.27374e-13 -0.737001 0.621579 0.701737 -6.45 0 0 -29.8896 -2.47077 -6.91641 -2.84217e-14 -32.4 -2 -13.8448 -43.7527 0.904076 -1.42109e-14 -25.65 2 -14.6818 -8.72058 45.3609 0.5 -1.5 2.65 28.8514 9.19179 -119.35 0 -3.8 3.7 0.355349 34.271 0.0127892 0 -3 2.7 0.0435463 55.716 -0.0332445 -1.13687e-13 -1.9 1.6 3.18055e-15 -6.36111e-15 9.54166e-15 1.13687e-13 -8.3 1.9 1.61871 -6.7629 0.0564093 -1.13687e-13 -4.5 -1.13687e-13 35.9204 -0.233456 0.300063 0 -3.4 0 25.6319 -0.052005 0.227687 0.25 -2.2 0.4 3.18055e-15 -6.36111e-15 9.54166e-15 0 -8.3 1 2.41262 0.344089 -0.0825723 0 -4.65 0 55.7517 0.00472779 -0.0395313 -2.27374e-13 -3.3 0 38.6865 -0.0152196 -0.0247707 0.5 -2.15 -0.8 3.18055e-15 -6.36111e-15 9.54166e-15 -1.13687e-13 -7.75 -0.2 8.06609 7.21351 -0.790683 -1.13687e-13 -3.8 0 41.335 -0.0293661 0.0152129 0 -3.4 1.13687e-13 28.913 -0.0114328 0.0168711 0.75 -1.75 -1.85 3.18055e-15 -6.36111e-15 9.54166e-15 1.13687e-13 -7.15 -1 19.1748 4.5866 -1.33703 -2.27374e-13 -3 1.13687e-13 -0 0 3.18055e-15 1.13687e-13 -2.35 -2.27374e-13 1.05934e-30 -6.36111e-15 9.54166e-15 8 0 -2.27374e-13 -21.1131 -52.5238 -24.4067 -5.68434e-14 -45 -1 -3.77394 62.5046 6.68464 0 -41 -2 -0.949202 1.40084 -22.7633 -1.13687e-13 -7.5 12.5 1.49089e-16 0 -3.18055e-15 -5.68434e-14 0 4 -2.3168 -2.12782 77.0228 -8 -5.68434e-14 0 -20.5871 -51.7759 -20.6539 8.52651e-14 -45 -1 13.6512 74.0643 -16.0928 1.42109e-14 -41 -2 1.58615 0.968111 6.05826 0 -7.5 12.5 -1.18546e-15 -12.0736 1.01768e-14 -2.84217e-14 0 4 2.98478 13.1704 28.7367 
-183.247 71.2229 1360.67 -2.61983 7.77008 -168.678 0 8 0 4.8616 9.9665 -8.49923 5.68434e-14 8 0 2.2147 6.02035 -1.79783 0 8 -2.27374e-13 1.08308 3.02076 -0.869288 -2.84217e-14 8 2.27374e-13 1.08123 3.0157 -0.867783 0 17 -4.54747e-13 2.54335 2.65129 -6.28456 0 10.8 2.27374e-13 6.39216 5.73167 -14.9125 5 17 -2.27374e-13 -2.18869 2.24853 -11.2446 6.45 -5.68434e-14 0 -0.388669 0.469571 -0.445729 6.45 5.68434e-14 -2.27374e-13 58.744 -23.456 -2.39789 -1.7053e-13 -32.4 -2 -7.7009 -58.5194 -22.227 -1.13687e-13 -25.65 2 13.4669 -31.8618 -29.9726 -0.5 -1.5 2.65 -44.304 -38.8123 40.9243 -2.27374e-13 -3.8 3.7 0.0596975 13.6757 0.0278591 0 -3 2.7 -0.183189 14.1428 -0.1155 0 -1.9 1.6 -1.98785e-15 2.22639e-14 1.19271e-15 -2.84217e-14 -8.3 1.9 -21.3348 7.90685 1.68127 0 -4.5 5.68434e-14 -88.4809 -1.04958e-13 -0.00110329 0 -3.4 -1.13687e-13 -84.9582 0.00837391 -0.00722862 -0.25 -2.2 0.4 -1.98785e-15 2.22639e-14 1.19271e-15 1.42109e-14 -8.3 1 -50.6776 10.465 7.24535 1.13687e-13 -4.65 0 -56.193 0.00836063 0.00176978 2.27374e-13 -3.3 0 -90.0002 6.04305e-14 -5.64548e-14 -0.5 -2.15 -0.8 -1.98785e-15 2.22639e-14 1.19271e-15 4.26326e-14 -7.75 -0.2 -72.8409 6.93428 11.4511 4.54747e-13 -3.8 0 -57.533 8.5363e-06 -0.00390851 0 -3.4 -1.13687e-13 -90.0002 0.00281162 -3.18055e-14 -0.75 -1.75 -1.85 -1.98785e-15 2.22639e-14 1.19271e-15 1.42109e-14 -7.15 -1 -84.132 4.56068 15.3162 -4.54747e-13 -3 0 -57.7964 0.0129964 -0.000215251 1.13687e-13 -2.35 0 -40.2604 0.010244 -0.000791632 -5 17 -2.27374e-13 10.0984 -2.60376 -5.82387 -6.45 -8.52651e-14 -2.27374e-13 -0.737035 0.622259 0.70411 -6.45 0 2.27374e-13 -29.9681 -2.16971 -7.28658 -5.68434e-14 -32.4 -2 -13.4594 -43.7925 0.438067 -1.42109e-14 -25.65 2 -13.6867 -8.96034 44.1132 0.5 -1.5 2.65 28.5879 10.2998 -117.148 0 -3.8 3.7 0.361494 32.7625 0.0125682 -2.27374e-13 -3 2.7 0.0435463 55.716 -0.0332445 0 -1.9 1.6 -4.77083e-15 -9.54166e-15 6.36111e-15 1.13687e-13 -8.3 1.9 1.32607 -6.86162 0.0433402 0 -4.5 0 38.8604 -0.166112 0.226669 0 -3.4 0 27.4345 -0.0291346 0.168203 0.25 -2.2 0.4 -4.77083e-15 -9.54166e-15 6.36111e-15 0 -8.3 1 2.44285 -0.0724449 -0.0788753 0 -4.65 -1.13687e-13 55.0339 0.0208616 -0.140933 0 -3.3 1.13687e-13 38.1834 -0.0501448 -0.0906771 0.5 -2.15 -0.8 -4.77083e-15 -9.54166e-15 6.36111e-15 -1.13687e-13 -7.75 -0.2 8.05338 6.83179 -0.761989 0 -3.8 0 41.1565 -0.00253434 -0.0593876 0 -3.4 0 28.8058 -0.0185153 -0.0309873 0.75 -1.75 -1.85 -4.77083e-15 -9.54166e-15 6.36111e-15 2.27374e-13 -7.15 -1 18.6098 4.85512 -1.33759 -1.13687e-13 -3 0 4.77083e-15 -3.18055e-15 -6.36111e-15 2.27374e-13 -2.35 -1.13687e-13 -1.59028e-15 -3.18055e-15 6.36111e-15 8 0 -4.54747e-13 -21.1536 -52.5167 -24.4701 -4.26326e-14 -45 -1 -3.78556 62.5026 6.70545 0 -41 -2 -1.10689 1.28105 -22.9639 -1.7053e-13 -7.5 12.5 2.98177e-16 9.93923e-17 -9.54166e-15 5.68434e-14 -3.55271e-15 4 -2.34205 -2.07966 77.0381 -8 -2.84217e-14 0 -20.5982 -51.7942 -20.6626 1.13687e-13 -45 -1 13.6328 74.0747 -16.0729 0 -41 -2 1.46294 0.990752 6.53065 -2.84217e-14 -7.5 12.5 1.99075e-15 -11.9729 1.93045e-15 2.84217e-14 0 4 2.96308 13.01 28.7559 
